<?xml version="1.0" standalone="no"?>
<svg viewBox="0 0 200 200" xmlns="http://www.w3.org/2000/svg">
  <path fill="#DDD6FE" d="M42.4,-79.2C51.4,-68.1,52.8,-49.7,61,-35.3C69.2,-20.9,84.1,-10.4,86.3,1.3C88.5,13,77.9,25.9,64.2,30.7C50.4,35.5,33.6,32.2,22.3,40.5C11.1,48.8,5.6,68.7,-1.3,70.9C-8.1,73,-16.1,57.5,-26.4,48.6C-36.6,39.7,-49,37.6,-60.3,30.6C-71.6,23.6,-81.9,11.8,-84.1,-1.2C-86.2,-14.3,-80.2,-28.6,-71.9,-40.9C-63.7,-53.2,-53.2,-63.5,-40.8,-72.6C-28.4,-81.7,-14.2,-89.5,1.2,-91.7C16.7,-93.8,33.3,-90.2,42.4,-79.2Z" transform="translate(100 100)" />
</svg>
