<?xml version="1.0" standalone="no"?>
<svg viewBox="0 0 200 200" xmlns="http://www.w3.org/2000/svg">
  <path fill="#DDD6FE" d="M34.6,-48.8C47.3,-52.7,61.5,-48.2,57.8,-38.7C54,-29.2,32.3,-14.6,32.4,0.1C32.6,14.8,54.7,29.6,55.6,34.2C56.5,38.8,36.2,33.2,23.4,39.9C10.6,46.5,5.3,65.4,0.5,64.5C-4.3,63.7,-8.6,43,-17.1,33.8C-25.6,24.7,-38.2,27,-42.6,23.3C-47,19.6,-43,9.8,-42.3,0.4C-41.6,-9,-44.1,-18,-39.1,-20.6C-34.2,-23.2,-21.6,-19.5,-13.9,-18.5C-6.1,-17.4,-3,-19,4,-25.9C11,-32.8,22,-45,34.6,-48.8Z" transform="translate(100 100)" />
</svg>
